<svg width="500" height="500" viewBox="0 0 500 500" fill="none" xmlns="http://www.w3.org/2000/svg">
<circle cx="250" cy="250" r="244.5" fill="#020114" stroke="#78EDE6" stroke-width="9"/>
<path d="M373.318 195H338.091C336.008 184.867 332.362 175.966 327.153 168.295C322.04 160.625 315.79 154.186 308.403 148.977C301.112 143.674 293.015 139.697 284.114 137.045C275.212 134.394 265.932 133.068 256.273 133.068C238.659 133.068 222.703 137.519 208.403 146.42C194.199 155.322 182.883 168.438 174.455 185.767C166.121 203.097 161.955 224.356 161.955 249.545C161.955 274.735 166.121 295.994 174.455 313.324C182.883 330.653 194.199 343.769 208.403 352.67C222.703 361.572 238.659 366.023 256.273 366.023C265.932 366.023 275.212 364.697 284.114 362.045C293.015 359.394 301.112 355.464 308.403 350.256C315.79 344.953 322.04 338.466 327.153 330.795C332.362 323.03 336.008 314.129 338.091 304.091H373.318C370.667 318.958 365.837 332.263 358.83 344.006C351.822 355.748 343.11 365.739 332.693 373.977C322.277 382.121 310.581 388.324 297.608 392.585C284.729 396.847 270.951 398.977 256.273 398.977C231.462 398.977 209.398 392.917 190.08 380.795C170.761 368.674 155.563 351.439 144.483 329.091C133.403 306.742 127.864 280.227 127.864 249.545C127.864 218.864 133.403 192.348 144.483 170C155.563 147.652 170.761 130.417 190.08 118.295C209.398 106.174 231.462 100.114 256.273 100.114C270.951 100.114 284.729 102.244 297.608 106.506C310.581 110.767 322.277 117.017 332.693 125.256C343.11 133.4 351.822 143.343 358.83 155.085C365.837 166.733 370.667 180.038 373.318 195Z" fill="white"/>
</svg>
