<svg width="500" height="500" viewBox="0 0 500 500" fill="none" xmlns="http://www.w3.org/2000/svg">
<circle cx="250" cy="250" r="235" fill="#351F0C" stroke="#C4640B" stroke-width="20"/>
<mask id="path-2-outside-1_8_2" maskUnits="userSpaceOnUse" x="118" y="236" width="264" height="142" fill="black">
<rect fill="white" x="118" y="236" width="264" height="142"/>
<path d="M369 249.5C369 280.133 356.463 309.51 334.146 331.171C311.829 352.831 281.561 365 250 365C218.439 365 188.171 352.831 165.854 331.171C143.537 309.51 131 280.133 131 249.5L250 249.5H369Z"/>
</mask>
<path d="M369 249.5C369 280.133 356.463 309.51 334.146 331.171C311.829 352.831 281.561 365 250 365C218.439 365 188.171 352.831 165.854 331.171C143.537 309.51 131 280.133 131 249.5L250 249.5H369Z" stroke="#C3640B" stroke-width="26" mask="url(#path-2-outside-1_8_2)"/>
<path d="M166.08 208.859C159.129 208.859 157.717 207.853 152.155 204.764C147.211 202.017 152.974 193.354 152.974 188.473C152.974 178.491 154.179 178.285 163.623 176.187C171.577 174.419 172.633 170.366 172.633 162.99C172.633 147.48 160.009 146.392 152.974 137.598C142.319 124.279 162.091 112.919 169.356 105.654" stroke="#C3640B" stroke-width="11" stroke-linecap="round"/>
<path d="M231.607 215.412C227.589 212.733 212.194 204.21 214.315 198.302C216.573 192.012 225.193 189.382 229.969 185.561C242.013 175.925 222.615 159.454 216.226 153.343C203.783 141.441 222.341 138.411 228.149 131.774C235.129 123.796 215.212 115.455 211.949 108.93" stroke="#C3640B" stroke-width="11" stroke-linecap="round"/>
<path d="M287.305 205.583C280.928 205.583 259.665 200.501 271.743 190.839C275.513 187.822 278.151 183.868 282.391 181.374C288.804 177.602 284.048 172.838 280.753 169.543C278.51 167.301 279.493 164.124 276.566 162.262C273.005 159.996 271.965 159.62 270.104 155.527C267.944 150.776 266.556 142.919 267.738 137.598C269.495 129.691 287.977 127.939 288.943 118.759C289.675 111.813 275.293 108.658 269.285 105.654" stroke="#C3640B" stroke-width="11" stroke-linecap="round"/>
<path d="M346.28 207.221C344.28 205.871 318.565 191.604 324.892 188.746C333.945 184.658 346.062 178.995 353.196 172.091C367.688 158.067 319.075 153.127 321.798 140.875C322.197 139.077 323.443 138.784 324.983 138.417C330.877 137.014 337.174 127.906 341.001 123.947C341.132 123.812 352.598 114.17 347.554 113.845C338.273 113.246 330.439 110.203 321.707 107.292" stroke="#C3640B" stroke-width="11" stroke-linecap="round"/>
<path d="M377.405 251.452C404.853 252.62 416.713 264.226 402.16 290.04C393.996 304.522 374.331 313.703 357.747 313.703" stroke="#C3640B" stroke-width="11" stroke-linecap="round"/>
</svg>
